<svg xmlns="http://www.w3.org/2000/svg" version="1.1" xmlns:xlink="http://www.w3.org/1999/xlink" xmlns:svgjs="http://svgjs.dev/svgjs" width="1500" height="935" viewBox="0 0 1500 935"><g transform="matrix(1,0,0,1,-0.9090909090909918,0.3785425101214628)"><svg viewBox="0 0 396 247" data-background-color="#ffffff" preserveAspectRatio="xMidYMid meet" height="935" width="1500" xmlns="http://www.w3.org/2000/svg" xmlns:xlink="http://www.w3.org/1999/xlink"><g id="tight-bounds" transform="matrix(1,0,0,1,0.2400000000000091,-0.09999999999999432)"><svg viewBox="0 0 395.52 247.2" height="247.2" width="395.52"><g><svg></svg></g><g><svg viewBox="0 0 395.52 247.2" height="247.2" width="395.52"><mask id="968d8391-6d4d-4fa3-a6e9-0e684854916a"><rect width="395.52" height="247.2" fill="white"></rect><g transform="matrix(1,0,0,1,0,87.81069026548673)" id="clone"><svg viewBox="0 0 395.52 71.57861946902655" height="71.57861946902655" width="395.52"><g><svg viewBox="0 0 395.52 71.57861946902655" height="71.57861946902655" width="395.52"><g><svg viewBox="0 0 395.52 71.57861946902655" height="71.57861946902655" width="395.52"><g><svg viewBox="0 0 395.52 71.57861946902655" height="71.57861946902655" width="395.52"><g id="SvgjsG2359"><svg viewBox="0 0 395.52 71.57861946902655" height="71.57861946902655" width="395.52" id="SvgjsSvg2358"><g><svg viewBox="0 0 395.52 71.57861946902655" height="71.57861946902655" width="395.52"><g transform="matrix(1,0,0,1,0,0)"><svg width="395.52" viewBox="-2.2 -35.55 226.98 41.9" height="71.57861946902655" data-palette-color="#9da27e"><path d="M21.15-2.05L21.15-2.05Q19.95-0.2 19.95 0.35 19.95 0.9 20.4 1.15L20.4 1.15Q20.4 1.2 19.5 1.9L19.5 1.9Q18.7 2.3 17.7 2.3 16.7 2.3 16.25 2.08 15.8 1.85 15.95 1.35L15.95 1.35Q16.65-0.9 21.2-7.68 25.75-14.45 27.3-17.25L27.3-17.25Q30.65-23.3 30.65-26.9L30.65-26.9Q30.65-28.4 30.15-29.45L30.15-29.45Q29.15-31.5 25.4-31.5L25.4-31.5Q19.55-31.5 13.3-26.45L13.3-26.45Q8.3-22.4 5.65-17.88 3-13.35 3-9.8L3-9.8Q3-4.7 7.5-4.6L7.5-4.6Q7.7-4.6 7.9-4.6L7.9-4.6Q13.65-4.6 16.8-8.75L16.8-8.75Q18-10.4 18-11.55 18-12.7 17.5-13L17.5-13Q17.45-13.05 17.45-13.2 17.45-13.35 17.75-13.35L17.75-13.35Q19.05-13.35 19.05-11.65L19.05-11.65Q19.05-10.6 18.03-8.8 17-7 14.4-5.4 11.8-3.8 8.35-3.8 4.9-3.8 2.85-5.95 0.8-8.1 0.8-11.6L0.8-11.6Q0.8-19.5 11.1-27.75L11.1-27.75Q13.75-29.85 18.07-31.2 22.4-32.55 26.35-32.55 30.3-32.55 31.73-31.18 33.15-29.8 33.15-27.5L33.15-27.5Q33.15-24 30.3-18.05L30.3-18.05Q29.4-16.2 26.25-11.3L26.25-11.3 30.1-16.2Q32.9-19.85 39.8-26.6L39.8-26.6Q41.3-28.05 43.13-29.03 44.95-30 46.25-30L46.25-30Q48.05-30 48.05-28.1L48.05-28.1Q48.05-26.45 46.48-23.13 44.9-19.8 43.3-16.82 41.7-13.85 41.35-12.93 41-12 40.85-11.45 40.7-10.9 40.65-10.85L40.65-10.85Q40.8-11.1 43.95-14.68 47.1-18.25 53.25-23.6L53.25-23.6 61.25-30.2Q62.2-31 62.95-31 63.7-31 64.17-29.75 64.65-28.5 64.65-27.73 64.65-26.95 62.25-24.5L62.25-24.5Q56-18.1 51.65-10.5 47.3-2.9 47.3 0.35L47.3 0.35Q47.3 1.2 47.6 1.53 47.9 1.85 48.55 1.73 49.2 1.6 51.28 0.7 53.35-0.2 54-0.35L54-0.35Q54.25-0.25 54.25-0.1L54.25-0.1Q54.25 0.65 51.63 2 49 3.35 47.68 3.35 46.35 3.35 46.05 2.9L46.05 2.9Q45.15 1.6 45.15-0.25L45.15-0.25Q45.15-4.55 49.75-12.6L49.75-12.6Q52.7-17.65 58.85-26.2L58.85-26.2Q54.05-22.3 45.85-14.25 37.65-6.2 35.1-1.65L35.1-1.65Q33.8 0.7 31.95 0.7L31.95 0.7Q31.1 0.7 31.1 0.1L31.1 0.1Q31.1-0.1 32.13-1.7 33.15-3.3 36.65-9.2L36.65-9.2Q45.25-24.15 45.25-27.2L45.25-27.2Q45.25-28 44.7-28L44.7-28Q43.9-28 42.35-26.65L42.35-26.65Q36.8-22 30.55-14.5 24.3-7 21.15-2.05ZM59.35 0.65L59.35 0.65Q58.8 0.65 58.35 0.5L58.35 0.5Q55.15-0.4 55.15-3.1L55.15-3.1Q55.15-6.6 59.55-11.2 63.95-15.8 67.45-15.8L67.45-15.8Q68.6-15.8 69.32-15.18 70.05-14.55 70.05-13.65L70.05-13.65Q70.05-10.85 65.82-8.3 61.6-5.75 58.95-5.75L58.95-5.75Q58.55-5.75 58.25-5.85L58.25-5.85Q57.5-4.5 57.5-3L57.5-3Q57.5-0.4 59.97-0.4 62.45-0.4 66.4-3.75L66.4-3.75Q69.45-6.2 71.6-8.95L71.6-8.95Q72.05-9.55 72.37-9.55 72.7-9.55 72.7-9.25 72.7-8.95 72.3-8.4L72.3-8.4Q69.6-4.85 65.8-2.1 62 0.65 59.35 0.65ZM68.8-13.75L68.8-13.75Q68.8-14.35 67.52-14.35 66.25-14.35 63.9-12.4L63.9-12.4Q60.75-9.8 59-6.95L59-6.95Q59.3-6.85 59.65-6.85L59.65-6.85Q61.55-6.85 64.72-8.88 67.9-10.9 68.7-13.3L68.7-13.3Q68.8-13.55 68.8-13.75ZM86.05-15.15L86.05-15.15Q91.65-24.25 93.85-24.25L93.85-24.25Q94.2-24.25 94.82-24.03 95.45-23.8 95.45-23.35L95.45-23.35Q95.45-23.1 95.2-22.7L95.2-22.7Q91.2-17.8 89.25-15.35L89.25-15.35Q83.35-7.9 82.75-4.65L82.75-4.65Q82.6-3.95 82.6-3.25L82.6-3.25Q82.6-1 84.45-1L84.45-1Q88.15-1 94.1-7.85L94.1-7.85Q94.6-8.35 94.95-8.43 95.3-8.5 95.3-8.25 95.3-8 95-7.65L95-7.65Q89.2-0.7 84.7 0.1L84.7 0.1Q84.45 0.15 84 0.15L84 0.15Q82.45 0.15 81.67-0.93 80.9-2 80.9-3.25L80.9-3.25Q80.9-4.65 81.45-6.35L81.45-6.35 77.4-2.3Q74.65 0.25 73.07 0.25 71.5 0.25 70.45-0.6L70.45-0.6Q69.2-1.55 69.2-3.25L69.2-3.25Q69.2-6.9 74.3-11.98 79.4-17.05 83.65-17.05L83.65-17.05Q85.05-17.05 85.6-16.3L85.6-16.3Q85.8-16.05 86.05-15.15ZM71.3-2.65L71.3-2.65Q71.3-0.85 72.55-0.85L72.55-0.85Q74.7-0.85 79.7-6.75L79.7-6.75Q80.6-7.8 85.7-14.6L85.7-14.6Q85.35-15.2 84.5-15.2L84.5-15.2Q81.4-15.2 76.35-10.48 71.3-5.75 71.3-2.65ZM103.84-20.4Q104.59-20.4 105.27-19.93 105.94-19.45 105.94-18.8 105.94-18.15 105.32-17.68 104.69-17.2 103.94-17.2 103.19-17.2 102.57-17.75 101.94-18.3 101.94-19L101.94-19Q101.94-20.4 103.84-20.4L103.84-20.4ZM94.79 0.55L94.79 0.55Q92.24 0.55 92.24-2.75L92.24-2.75Q92.24-5.45 95.19-10.23 98.14-15 99.94-15.05L99.94-15.05Q100.44-15.05 101.07-14.65 101.69-14.25 101.69-13.85L101.69-13.85Q101.44-13.5 101.09-13.08 100.74-12.65 100.34-12.15 99.94-11.65 99.24-10.73 98.54-9.8 97.89-8.95L97.89-8.95Q94.14-4.1 94.14-2.27 94.14-0.45 95.39-0.45L95.39-0.45Q96.44-0.45 98.24-1.6L98.24-1.6Q102.44-4.2 104.89-7.3L104.89-7.3Q105.79-8.45 106.12-8.45 106.44-8.45 106.44-8.05 106.44-7.65 105.29-6.45 104.14-5.25 103.47-4.55 102.79-3.85 102.54-3.63 102.29-3.4 101.62-2.78 100.94-2.15 100.59-1.9 100.24-1.65 99.59-1.15 98.94-0.65 98.44-0.43 97.94-0.2 97.29 0.1L97.29 0.1Q96.24 0.55 94.79 0.55ZM125.44-2.05L125.44-2.05Q124.24-0.2 124.24 0.35 124.24 0.9 124.69 1.15L124.69 1.15Q124.69 1.2 123.79 1.9L123.79 1.9Q122.99 2.3 121.99 2.3 120.99 2.3 120.54 2.08 120.09 1.85 120.24 1.35L120.24 1.35Q120.94-0.9 125.49-7.68 130.04-14.45 131.59-17.25L131.59-17.25Q134.94-23.3 134.94-26.9L134.94-26.9Q134.94-28.4 134.44-29.45L134.44-29.45Q133.44-31.5 129.69-31.5L129.69-31.5Q123.84-31.5 117.59-26.45L117.59-26.45Q112.59-22.4 109.94-17.88 107.29-13.35 107.29-9.8L107.29-9.8Q107.29-4.7 111.79-4.6L111.79-4.6Q111.99-4.6 112.19-4.6L112.19-4.6Q117.94-4.6 121.09-8.75L121.09-8.75Q122.29-10.4 122.29-11.55 122.29-12.7 121.79-13L121.79-13Q121.74-13.05 121.74-13.2 121.74-13.35 122.04-13.35L122.04-13.35Q123.34-13.35 123.34-11.65L123.34-11.65Q123.34-10.6 122.32-8.8 121.29-7 118.69-5.4 116.09-3.8 112.64-3.8 109.19-3.8 107.14-5.95 105.09-8.1 105.09-11.6L105.09-11.6Q105.09-19.5 115.39-27.75L115.39-27.75Q118.04-29.85 122.37-31.2 126.69-32.55 130.64-32.55 134.59-32.55 136.02-31.18 137.44-29.8 137.44-27.5L137.44-27.5Q137.44-24 134.59-18.05L134.59-18.05Q133.69-16.2 130.54-11.3L130.54-11.3 134.39-16.2Q137.19-19.85 144.09-26.6L144.09-26.6Q145.59-28.05 147.42-29.03 149.24-30 150.54-30L150.54-30Q152.34-30 152.34-28.1L152.34-28.1Q152.34-26.45 150.77-23.13 149.19-19.8 147.59-16.82 145.99-13.85 145.64-12.93 145.29-12 145.14-11.45 144.99-10.9 144.94-10.85L144.94-10.85Q145.09-11.1 148.24-14.68 151.39-18.25 157.54-23.6L157.54-23.6 165.54-30.2Q166.49-31 167.24-31 167.99-31 168.47-29.75 168.94-28.5 168.94-27.73 168.94-26.95 166.54-24.5L166.54-24.5Q160.29-18.1 155.94-10.5 151.59-2.9 151.59 0.35L151.59 0.35Q151.59 1.2 151.89 1.53 152.19 1.85 152.84 1.73 153.49 1.6 155.56 0.7 157.64-0.2 158.29-0.35L158.29-0.35Q158.54-0.25 158.54-0.1L158.54-0.1Q158.54 0.65 155.92 2 153.29 3.35 151.97 3.35 150.64 3.35 150.34 2.9L150.34 2.9Q149.44 1.6 149.44-0.25L149.44-0.25Q149.44-4.55 154.04-12.6L154.04-12.6Q156.99-17.65 163.14-26.2L163.14-26.2Q158.34-22.3 150.14-14.25 141.94-6.2 139.39-1.65L139.39-1.65Q138.09 0.7 136.24 0.7L136.24 0.7Q135.39 0.7 135.39 0.1L135.39 0.1Q135.39-0.1 136.42-1.7 137.44-3.3 140.94-9.2L140.94-9.2Q149.54-24.15 149.54-27.2L149.54-27.2Q149.54-28 148.99-28L148.99-28Q148.19-28 146.64-26.65L146.64-26.65Q141.09-22 134.84-14.5 128.59-7 125.44-2.05ZM177.69-14.95L177.69-14.95 178.39-15.1Q178.94-15.1 179.44-14.65 179.94-14.2 179.94-13.95 179.94-13.7 176.84-9.13 173.74-4.55 173.74-2.75L173.74-2.75Q173.74-2.6 173.79-2.45L173.79-2.45Q174.04-1.3 174.89-1.3L174.89-1.3Q177.49-1.3 184.39-9.9L184.39-9.9Q184.54-10.1 184.74-10.1 184.94-10.1 184.94-9.73 184.94-9.35 184.49-8.75L184.49-8.75Q178.09-0.2 174.74-0.2L174.74-0.2Q174.29-0.2 173.89-0.35L173.89-0.35Q171.69-1.2 171.69-3.65L171.69-3.65Q171.69-4.5 171.89-5.35L171.89-5.35 168.79-2.35Q165.84 0.25 164.51 0.25 163.19 0.25 161.99-0.6L161.99-0.6Q160.64-1.6 160.64-3.25L160.64-3.25Q160.64-6.9 165.74-11.98 170.84-17.05 175.09-17.05L175.09-17.05Q176.74-17.05 177.29-15.9L177.29-15.9Q177.44-15.5 177.54-15.23 177.64-14.95 177.69-14.95ZM162.74-2.65L162.74-2.65Q162.74-0.85 163.99-0.85L163.99-0.85Q166.89-0.85 171.89-7.2L171.89-7.2 177.19-14.5Q176.79-15.2 175.89-15.2L175.89-15.2Q172.84-15.2 167.79-10.48 162.74-5.75 162.74-2.65ZM191.88 0.25L191.88 0.25Q188.13 0.25 188.13-3.9L188.13-3.9Q188.13-6 189.24-8.5 190.34-11 191.63-12.7L191.63-12.7Q191.38-12.65 190.99-12.65L190.99-12.65Q189.78-12.65 188.99-14.35L188.99-14.35 185.28-9.55Q182.19-5.7 181.69-5.7L181.69-5.7Q181.44-5.7 181.44-5.9L181.44-5.9Q181.44-6.4 182.28-7.35L182.28-7.35Q186.63-12.4 188.44-15.9L188.44-15.9Q189.59-20.25 191.34-20.25L191.34-20.25Q192.49-20.25 192.49-19.25 192.49-18.25 191.24-16.7L191.24-16.7 190.03-15.1Q190.03-14.05 191.59-14.05L191.59-14.05Q192.49-14.05 193.59-14.7L193.59-14.7 194.88-15.5Q194.99-15.55 195.38-15.55 195.78-15.55 196.24-15.05 196.69-14.55 196.53-14.15L196.53-14.15 193.09-9.8Q189.88-5.7 189.88-3.33 189.88-0.95 192.09-0.95L192.09-0.95Q194.38-0.95 197.74-3.4L197.74-3.4Q199.74-4.85 201.38-6.65L201.38-6.65Q202.94-8.45 203.09-8.45L203.09-8.45Q203.44-8.45 203.44-8.08 203.44-7.7 202.99-7.2L202.99-7.2 201.38-5.4Q200.03-4 198.38-2.7L198.38-2.7Q194.44 0.25 191.88 0.25ZM214.43-16.1L214.43-16.1 221.63-16.2Q221.78-16.1 221.78-16.05L221.78-16.05Q221.78-15.6 215.56-14.8 209.33-14 208.83-13.85L208.83-13.85Q207.88-13 205.33-8.78 202.78-4.55 202.78-2.6L202.78-2.6Q202.78-0.75 205.33-0.75L205.33-0.75Q206.53-0.75 208.48-1.5 210.43-2.25 211.48-2.9L211.48-2.9Q214.28-4.65 217.48-8.05L217.48-8.05Q218.18-8.75 218.43-8.75L218.43-8.75Q218.58-8.75 218.58-8.45 218.58-8.15 217.83-7.25L217.83-7.25Q215.23-4.05 211.98-2.1L211.98-2.1Q208.08 0.3 204.53 0.3L204.53 0.3Q202.98 0.3 202.01-0.38 201.03-1.05 201.03-3.1 201.03-5.15 202.83-8.72 204.63-12.3 205.58-14.05L205.58-14.05Q204.88-13.9 204.38-13.9L204.38-13.9Q202.93-13.9 202.93-15.05L202.93-15.05Q202.93-15.9 204.13-16.25L204.13-16.25Q204.28-16.25 204.58-16.3L204.58-16.3 207.48-16.3Q208.38-17.45 209.53-18.95L209.53-18.95Q210.93-20.75 211.43-20.75 211.93-20.75 212.68-20.35 213.43-19.95 213.43-19.4 213.43-18.85 211.03-16.15L211.03-16.15Q212.33-16.1 214.43-16.1Z" opacity="1" transform="matrix(1,0,0,1,0,0)" fill="black" class="wordmark-text-0" id="SvgjsPath2357" stroke-width="5" stroke="black" stroke-linejoin="round"></path></svg></g></svg></g></svg></g></svg></g><g></g></svg></g></svg></g></svg></g></mask><g mask="url(#968d8391-6d4d-4fa3-a6e9-0e684854916a)"><g><path d="M126.421 200.948v0c-4.931 7.601-7.396 12.532-7.396 14.792 0 2.26 0.924 3.903 2.774 4.93v0c0 0.205-1.849 1.746-5.547 4.623v0c-3.287 1.644-6.985 2.465-11.094 2.465-4.109 0-7.088-0.452-8.937-1.356-1.849-0.945-2.465-2.445-1.849-4.499v0c2.876-9.245 13.662-27.796 32.357-55.654 18.695-27.817 31.227-47.477 37.596-58.981v0c13.764-24.858 20.647-44.683 20.646-59.475v0c0-6.163-1.027-11.402-3.081-15.716v0c-4.109-8.423-13.867-12.635-29.275-12.635v0c-24.036 0-48.895 10.375-74.575 31.124v0c-20.544 16.641-36.26 34.247-47.149 52.819-10.888 18.613-16.332 35.212-16.332 49.798v0c0 20.955 9.245 31.638 27.734 32.049v0c0.822 0 1.644 0 2.466 0v0c23.626 0 41.91-8.526 54.852-25.577v0c4.931-6.78 7.396-12.532 7.396-17.257 0-4.725-1.027-7.704-3.082-8.937v0c-0.205-0.205-0.308-0.616-0.308-1.233 0-0.616 0.616-0.924 1.849-0.924v0c5.341 0 8.012 3.492 8.012 10.477v0c0 4.314-2.095 10.169-6.286 17.566-4.232 7.396-11.69 14.381-22.373 20.954-10.683 6.574-23.112 9.861-37.287 9.862-14.175 0-25.475-4.417-33.897-13.251-8.423-8.834-12.635-20.441-12.635-34.822v0c0-32.459 21.16-65.638 63.481-99.536v0c10.888-8.628 25.207-15.716 42.957-21.263 17.791-5.547 34.802-8.32 51.032-8.32 16.23 0 27.282 2.815 33.158 8.443 5.834 5.67 8.752 13.23 8.751 22.681v0c0 14.381-5.855 33.795-17.565 58.242v0c-3.698 7.601-12.018 21.468-24.961 41.602v0l23.729-30.2c11.505-14.997 31.432-36.363 59.783-64.097v0c6.163-5.958 13.004-10.95 20.523-14.977 7.478-3.986 13.888-5.978 19.229-5.978v0c7.396 0 11.094 3.903 11.094 11.71v0c0 6.78-3.225 16.99-9.676 30.631-6.492 13.682-13.025 26.646-19.599 38.89-6.574 12.203-10.58 20.195-12.018 23.975-1.438 3.821-2.465 6.862-3.082 9.121-0.616 2.26-1.027 3.492-1.233 3.698v0c0.616-1.027 7.396-8.896 20.339-23.605 12.943-14.668 32.049-32.994 57.318-54.976v0l49.305-40.677c3.903-3.287 7.396-4.931 10.478-4.93 3.082 0 5.588 2.568 7.519 7.704 1.972 5.136 2.958 9.286 2.958 12.449 0 3.205-4.931 9.841-14.792 19.907v0c-25.68 26.296-47.457 55.058-65.33 86.285-17.873 31.227-26.81 53.517-26.809 66.871v0c0 3.492 0.616 5.917 1.848 7.272 1.233 1.315 3.184 1.726 5.856 1.233 2.671-0.534 8.279-2.65 16.825-6.348 8.505-3.698 14.093-5.855 16.764-6.471v0c1.027 0.411 1.541 0.924 1.541 1.54v0c0 3.082-5.383 7.396-16.148 12.943-10.806 5.547-18.921 8.32-24.344 8.32-5.465 0-8.813-0.924-10.046-2.773v0c-3.698-5.341-5.547-11.813-5.547-19.414v0c0-17.668 9.45-43.04 28.35-76.116v0c12.121-20.749 30.816-48.689 56.085-83.819v0c-19.722 16.024-46.429 40.574-80.121 73.65-33.692 33.076-55.777 58.961-66.254 77.656v0c-5.341 9.656-11.813 14.484-19.415 14.484v0c-3.492 0-5.239-1.233-5.238-3.698v0c0-0.822 2.116-4.52 6.348-11.094 4.191-6.574 13.477-21.982 27.857-46.224v0c35.336-61.427 53.003-98.406 53.004-110.937v0c0-3.287-1.13-4.931-3.39-4.931v0c-3.287 0-8.115 2.773-14.483 8.321v0c-22.804 19.106-47.046 44.067-72.726 74.882-25.68 30.816-44.991 56.393-57.934 76.732z" fill="#9da27e" fill-rule="nonzero" stroke="none" stroke-width="1" stroke-linecap="butt" stroke-linejoin="miter" stroke-miterlimit="10" stroke-dasharray="" stroke-dashoffset="0" font-family="none" font-weight="none" font-size="none" text-anchor="none" style="mix-blend-mode: normal" data-fill-palette-color="tertiary"></path></g></g><g transform="matrix(1,0,0,1,0,87.81069026548673)"><svg viewBox="0 0 395.52 71.57861946902655" height="71.57861946902655" width="395.52"><g><svg viewBox="0 0 395.52 71.57861946902655" height="71.57861946902655" width="395.52"><g><svg viewBox="0 0 395.52 71.57861946902655" height="71.57861946902655" width="395.52"><g><svg viewBox="0 0 395.52 71.57861946902655" height="71.57861946902655" width="395.52"><g id="textblocktransform"><svg viewBox="0 0 395.52 71.57861946902655" height="71.57861946902655" width="395.52" id="textblock"><g><svg viewBox="0 0 395.52 71.57861946902655" height="71.57861946902655" width="395.52"><g transform="matrix(1,0,0,1,0,0)"><svg width="395.52" viewBox="-2.2 -35.55 226.98 41.9" height="71.57861946902655" data-palette-color="#9da27e"><path d="M21.15-2.05L21.15-2.05Q19.95-0.2 19.95 0.35 19.95 0.9 20.4 1.15L20.4 1.15Q20.4 1.2 19.5 1.9L19.5 1.9Q18.7 2.3 17.7 2.3 16.7 2.3 16.25 2.08 15.8 1.85 15.95 1.35L15.95 1.35Q16.65-0.9 21.2-7.68 25.75-14.45 27.3-17.25L27.3-17.25Q30.65-23.3 30.65-26.9L30.65-26.9Q30.65-28.4 30.15-29.45L30.15-29.45Q29.15-31.5 25.4-31.5L25.4-31.5Q19.55-31.5 13.3-26.45L13.3-26.45Q8.3-22.4 5.65-17.88 3-13.35 3-9.8L3-9.8Q3-4.7 7.5-4.6L7.5-4.6Q7.7-4.6 7.9-4.6L7.9-4.6Q13.65-4.6 16.8-8.75L16.8-8.75Q18-10.4 18-11.55 18-12.7 17.5-13L17.5-13Q17.45-13.05 17.45-13.2 17.45-13.35 17.75-13.35L17.75-13.35Q19.05-13.35 19.05-11.65L19.05-11.65Q19.05-10.6 18.03-8.8 17-7 14.4-5.4 11.8-3.8 8.35-3.8 4.9-3.8 2.85-5.95 0.8-8.1 0.8-11.6L0.8-11.6Q0.8-19.5 11.1-27.75L11.1-27.75Q13.75-29.85 18.07-31.2 22.4-32.55 26.35-32.55 30.3-32.55 31.73-31.18 33.15-29.8 33.15-27.5L33.15-27.5Q33.15-24 30.3-18.05L30.3-18.05Q29.4-16.2 26.25-11.3L26.25-11.3 30.1-16.2Q32.9-19.85 39.8-26.6L39.8-26.6Q41.3-28.05 43.13-29.03 44.95-30 46.25-30L46.25-30Q48.05-30 48.05-28.1L48.05-28.1Q48.05-26.45 46.48-23.13 44.9-19.8 43.3-16.82 41.7-13.85 41.35-12.93 41-12 40.85-11.45 40.7-10.9 40.65-10.85L40.65-10.85Q40.8-11.1 43.95-14.68 47.1-18.25 53.25-23.6L53.25-23.6 61.25-30.2Q62.2-31 62.95-31 63.7-31 64.17-29.75 64.65-28.5 64.65-27.73 64.65-26.95 62.25-24.5L62.25-24.5Q56-18.1 51.65-10.5 47.3-2.9 47.3 0.35L47.3 0.35Q47.3 1.2 47.6 1.53 47.9 1.85 48.55 1.73 49.2 1.6 51.28 0.7 53.35-0.2 54-0.35L54-0.35Q54.25-0.25 54.25-0.1L54.25-0.1Q54.25 0.65 51.63 2 49 3.35 47.68 3.35 46.35 3.35 46.05 2.9L46.05 2.9Q45.15 1.6 45.15-0.25L45.15-0.25Q45.15-4.55 49.75-12.6L49.75-12.6Q52.7-17.65 58.85-26.2L58.85-26.2Q54.05-22.3 45.85-14.25 37.65-6.2 35.1-1.65L35.1-1.65Q33.8 0.7 31.95 0.7L31.95 0.7Q31.1 0.7 31.1 0.1L31.1 0.1Q31.1-0.1 32.13-1.7 33.15-3.3 36.65-9.2L36.65-9.2Q45.25-24.15 45.25-27.2L45.25-27.2Q45.25-28 44.7-28L44.7-28Q43.9-28 42.35-26.65L42.35-26.65Q36.8-22 30.55-14.5 24.3-7 21.15-2.05ZM59.35 0.65L59.35 0.65Q58.8 0.65 58.35 0.5L58.35 0.5Q55.15-0.4 55.15-3.1L55.15-3.1Q55.15-6.6 59.55-11.2 63.95-15.8 67.45-15.8L67.45-15.8Q68.6-15.8 69.32-15.18 70.05-14.55 70.05-13.65L70.05-13.65Q70.05-10.85 65.82-8.3 61.6-5.75 58.95-5.75L58.95-5.75Q58.55-5.75 58.25-5.85L58.25-5.85Q57.5-4.5 57.5-3L57.5-3Q57.5-0.4 59.97-0.4 62.45-0.4 66.4-3.75L66.4-3.75Q69.45-6.2 71.6-8.95L71.6-8.95Q72.05-9.55 72.37-9.55 72.7-9.55 72.7-9.25 72.7-8.95 72.3-8.4L72.3-8.4Q69.6-4.85 65.8-2.1 62 0.65 59.35 0.65ZM68.8-13.75L68.8-13.75Q68.8-14.35 67.52-14.35 66.25-14.35 63.9-12.4L63.9-12.4Q60.75-9.8 59-6.95L59-6.95Q59.3-6.85 59.65-6.85L59.65-6.85Q61.55-6.85 64.72-8.88 67.9-10.9 68.7-13.3L68.7-13.3Q68.8-13.55 68.8-13.75ZM86.05-15.15L86.05-15.15Q91.65-24.25 93.85-24.25L93.85-24.25Q94.2-24.25 94.82-24.03 95.45-23.8 95.45-23.35L95.45-23.35Q95.45-23.1 95.2-22.7L95.2-22.7Q91.2-17.8 89.25-15.35L89.25-15.35Q83.35-7.9 82.75-4.65L82.75-4.65Q82.6-3.95 82.6-3.25L82.6-3.25Q82.6-1 84.45-1L84.45-1Q88.15-1 94.1-7.85L94.1-7.85Q94.6-8.35 94.95-8.43 95.3-8.5 95.3-8.25 95.3-8 95-7.65L95-7.65Q89.2-0.7 84.7 0.1L84.7 0.1Q84.45 0.15 84 0.15L84 0.15Q82.45 0.15 81.67-0.93 80.9-2 80.9-3.25L80.9-3.25Q80.9-4.65 81.45-6.35L81.45-6.35 77.4-2.3Q74.65 0.25 73.07 0.25 71.5 0.25 70.45-0.6L70.45-0.6Q69.2-1.55 69.2-3.25L69.2-3.25Q69.2-6.9 74.3-11.98 79.4-17.05 83.65-17.05L83.65-17.05Q85.05-17.05 85.6-16.3L85.6-16.3Q85.8-16.05 86.05-15.15ZM71.3-2.65L71.3-2.65Q71.3-0.85 72.55-0.85L72.55-0.85Q74.7-0.85 79.7-6.75L79.7-6.75Q80.6-7.8 85.7-14.6L85.7-14.6Q85.35-15.2 84.5-15.2L84.5-15.2Q81.4-15.2 76.35-10.48 71.3-5.75 71.3-2.65ZM103.84-20.4Q104.59-20.4 105.27-19.93 105.94-19.45 105.94-18.8 105.94-18.15 105.32-17.68 104.69-17.2 103.94-17.2 103.19-17.2 102.57-17.75 101.94-18.3 101.94-19L101.94-19Q101.94-20.4 103.84-20.4L103.84-20.4ZM94.79 0.55L94.79 0.55Q92.24 0.55 92.24-2.75L92.24-2.75Q92.24-5.45 95.19-10.23 98.14-15 99.94-15.05L99.94-15.05Q100.44-15.05 101.07-14.65 101.69-14.25 101.69-13.85L101.69-13.85Q101.44-13.5 101.09-13.08 100.74-12.65 100.34-12.15 99.94-11.65 99.24-10.73 98.54-9.8 97.89-8.95L97.89-8.95Q94.14-4.1 94.14-2.27 94.14-0.45 95.39-0.45L95.39-0.45Q96.44-0.45 98.24-1.6L98.24-1.6Q102.44-4.2 104.89-7.3L104.89-7.3Q105.79-8.45 106.12-8.45 106.44-8.45 106.44-8.05 106.44-7.65 105.29-6.45 104.14-5.25 103.47-4.55 102.79-3.85 102.54-3.63 102.29-3.4 101.62-2.78 100.94-2.15 100.59-1.9 100.24-1.65 99.59-1.15 98.94-0.65 98.44-0.43 97.94-0.2 97.29 0.1L97.29 0.1Q96.24 0.55 94.79 0.55ZM125.44-2.05L125.44-2.05Q124.24-0.2 124.24 0.35 124.24 0.9 124.69 1.15L124.69 1.15Q124.69 1.2 123.79 1.9L123.79 1.9Q122.99 2.3 121.99 2.3 120.99 2.3 120.54 2.08 120.09 1.85 120.24 1.35L120.24 1.35Q120.94-0.9 125.49-7.68 130.04-14.45 131.59-17.25L131.59-17.25Q134.94-23.3 134.94-26.9L134.94-26.9Q134.94-28.4 134.44-29.45L134.44-29.45Q133.44-31.5 129.69-31.5L129.69-31.5Q123.84-31.5 117.59-26.45L117.59-26.45Q112.59-22.4 109.94-17.88 107.29-13.35 107.29-9.8L107.29-9.8Q107.29-4.7 111.79-4.6L111.79-4.6Q111.99-4.6 112.19-4.6L112.19-4.6Q117.94-4.6 121.09-8.75L121.09-8.75Q122.29-10.4 122.29-11.55 122.29-12.7 121.79-13L121.79-13Q121.74-13.05 121.74-13.2 121.74-13.35 122.04-13.35L122.04-13.35Q123.34-13.35 123.34-11.65L123.34-11.65Q123.34-10.6 122.32-8.8 121.29-7 118.69-5.4 116.09-3.8 112.64-3.8 109.19-3.8 107.14-5.95 105.09-8.1 105.09-11.6L105.09-11.6Q105.09-19.5 115.39-27.75L115.39-27.75Q118.04-29.85 122.37-31.2 126.69-32.55 130.64-32.55 134.59-32.55 136.02-31.18 137.44-29.8 137.44-27.5L137.44-27.5Q137.44-24 134.59-18.05L134.59-18.05Q133.69-16.2 130.54-11.3L130.54-11.3 134.39-16.2Q137.19-19.85 144.09-26.6L144.09-26.6Q145.59-28.05 147.42-29.03 149.24-30 150.54-30L150.54-30Q152.34-30 152.34-28.1L152.34-28.1Q152.34-26.45 150.77-23.13 149.19-19.8 147.59-16.82 145.99-13.85 145.64-12.93 145.29-12 145.14-11.45 144.99-10.9 144.94-10.85L144.94-10.85Q145.09-11.1 148.24-14.68 151.39-18.25 157.54-23.6L157.54-23.6 165.54-30.2Q166.49-31 167.24-31 167.99-31 168.47-29.75 168.94-28.5 168.94-27.73 168.94-26.95 166.54-24.5L166.54-24.5Q160.29-18.1 155.94-10.5 151.59-2.9 151.59 0.35L151.59 0.35Q151.59 1.2 151.89 1.53 152.19 1.85 152.84 1.73 153.49 1.6 155.56 0.7 157.64-0.2 158.29-0.35L158.29-0.35Q158.54-0.25 158.54-0.1L158.54-0.1Q158.54 0.65 155.92 2 153.29 3.35 151.97 3.35 150.64 3.35 150.34 2.9L150.34 2.9Q149.44 1.6 149.44-0.25L149.44-0.25Q149.44-4.55 154.04-12.6L154.04-12.6Q156.99-17.65 163.14-26.2L163.14-26.2Q158.34-22.3 150.14-14.25 141.94-6.2 139.39-1.65L139.39-1.65Q138.09 0.7 136.24 0.7L136.24 0.7Q135.39 0.7 135.39 0.1L135.39 0.1Q135.39-0.1 136.42-1.7 137.44-3.3 140.94-9.2L140.94-9.2Q149.54-24.15 149.54-27.2L149.54-27.2Q149.54-28 148.99-28L148.99-28Q148.19-28 146.64-26.65L146.64-26.65Q141.09-22 134.84-14.5 128.59-7 125.44-2.05ZM177.69-14.95L177.69-14.95 178.39-15.1Q178.94-15.1 179.44-14.65 179.94-14.2 179.94-13.95 179.94-13.7 176.84-9.13 173.74-4.55 173.74-2.75L173.74-2.75Q173.74-2.6 173.79-2.45L173.79-2.45Q174.04-1.3 174.89-1.3L174.89-1.3Q177.49-1.3 184.39-9.9L184.39-9.9Q184.54-10.1 184.74-10.1 184.94-10.1 184.94-9.73 184.94-9.35 184.49-8.75L184.49-8.75Q178.09-0.2 174.74-0.2L174.74-0.2Q174.29-0.2 173.89-0.35L173.89-0.35Q171.69-1.2 171.69-3.65L171.69-3.65Q171.69-4.5 171.89-5.35L171.89-5.35 168.79-2.35Q165.84 0.25 164.51 0.25 163.19 0.25 161.99-0.6L161.99-0.6Q160.64-1.6 160.64-3.25L160.64-3.25Q160.64-6.9 165.74-11.98 170.84-17.05 175.09-17.05L175.09-17.05Q176.74-17.05 177.29-15.9L177.29-15.9Q177.44-15.5 177.54-15.23 177.64-14.95 177.69-14.95ZM162.74-2.65L162.74-2.65Q162.74-0.85 163.99-0.85L163.99-0.85Q166.89-0.85 171.89-7.2L171.89-7.2 177.19-14.5Q176.79-15.2 175.89-15.2L175.89-15.2Q172.84-15.2 167.79-10.48 162.74-5.75 162.74-2.65ZM191.88 0.25L191.88 0.25Q188.13 0.25 188.13-3.9L188.13-3.9Q188.13-6 189.24-8.5 190.34-11 191.63-12.7L191.63-12.7Q191.38-12.65 190.99-12.65L190.99-12.65Q189.78-12.65 188.99-14.35L188.99-14.35 185.28-9.55Q182.19-5.7 181.69-5.7L181.69-5.7Q181.44-5.7 181.44-5.9L181.44-5.9Q181.44-6.4 182.28-7.35L182.28-7.35Q186.63-12.4 188.44-15.9L188.44-15.9Q189.59-20.25 191.34-20.25L191.34-20.25Q192.49-20.25 192.49-19.25 192.49-18.25 191.24-16.7L191.24-16.7 190.03-15.1Q190.03-14.05 191.59-14.05L191.59-14.05Q192.49-14.05 193.59-14.7L193.59-14.7 194.88-15.5Q194.99-15.55 195.38-15.55 195.78-15.55 196.24-15.05 196.69-14.55 196.53-14.15L196.53-14.15 193.09-9.8Q189.88-5.7 189.88-3.33 189.88-0.95 192.09-0.95L192.09-0.95Q194.38-0.95 197.74-3.4L197.74-3.4Q199.74-4.85 201.38-6.65L201.38-6.65Q202.94-8.45 203.09-8.45L203.09-8.45Q203.44-8.45 203.44-8.08 203.44-7.7 202.99-7.2L202.99-7.2 201.38-5.4Q200.03-4 198.38-2.7L198.38-2.7Q194.44 0.25 191.88 0.25ZM214.43-16.1L214.43-16.1 221.63-16.2Q221.78-16.1 221.78-16.05L221.78-16.05Q221.78-15.6 215.56-14.8 209.33-14 208.83-13.85L208.83-13.85Q207.88-13 205.33-8.78 202.78-4.55 202.78-2.6L202.78-2.6Q202.78-0.75 205.33-0.75L205.33-0.75Q206.53-0.75 208.48-1.5 210.43-2.25 211.48-2.9L211.48-2.9Q214.28-4.65 217.48-8.05L217.48-8.05Q218.18-8.75 218.43-8.75L218.43-8.75Q218.58-8.75 218.58-8.45 218.58-8.15 217.83-7.25L217.83-7.25Q215.23-4.05 211.98-2.1L211.98-2.1Q208.08 0.3 204.53 0.3L204.53 0.3Q202.98 0.3 202.01-0.38 201.03-1.05 201.03-3.1 201.03-5.15 202.83-8.72 204.63-12.3 205.58-14.05L205.58-14.05Q204.88-13.9 204.38-13.9L204.38-13.9Q202.93-13.9 202.93-15.05L202.93-15.05Q202.93-15.9 204.13-16.25L204.13-16.25Q204.28-16.25 204.58-16.3L204.58-16.3 207.48-16.3Q208.38-17.45 209.53-18.95L209.53-18.95Q210.93-20.75 211.43-20.75 211.93-20.75 212.68-20.35 213.43-19.95 213.43-19.4 213.43-18.85 211.03-16.15L211.03-16.15Q212.33-16.1 214.43-16.1Z" opacity="1" transform="matrix(1,0,0,1,0,0)" fill="#9da27e" class="wordmark-text-0" data-fill-palette-color="primary" id="text-0"></path></svg></g></svg></g></svg></g></svg></g><g></g></svg></g></svg></g></svg></g></svg></g><defs></defs></svg><rect width="395.52" height="247.2" fill="none" stroke="none" visibility="hidden"></rect></g></svg></g></svg>